<svg width="32" height="32" viewBox="0 0 32 32" fill="none" xmlns="http://www.w3.org/2000/svg">
<path d="M16 0C24.836 0 32 7.34591 32 16.4062C31.9999 23.6454 27.4198 29.7973 21.0186 31.9492C20.1986 32.1133 19.9189 31.6006 19.9189 31.1699C19.919 30.6363 19.9385 28.8729 19.9385 26.6777C19.9385 25.141 19.4184 24.1348 18.8584 23.6426C22.4184 23.2393 26.1582 21.8516 26.1582 15.5488C26.1582 13.7578 25.5386 12.2949 24.5186 11.1465C24.6785 10.7322 25.2183 9.06453 24.3584 6.80469C24.3431 6.79975 23.001 6.37666 19.9785 8.48633C18.6985 8.1213 17.3385 7.94082 15.9785 7.93262C14.6186 7.94083 13.2585 8.1213 11.9785 8.48633C8.94429 6.38233 7.60151 6.79754 7.5791 6.80469C6.71926 9.06441 7.25845 10.7321 7.43848 11.1465C6.41186 12.2949 5.79199 13.7579 5.79199 15.5488C5.79199 21.8352 9.52674 23.2461 13.0801 23.6562C12.6227 24.0664 12.2104 24.7896 12.0664 25.8506C11.1516 26.2703 8.8328 26.9949 7.40625 24.4863C7.4025 24.4793 6.55912 22.9105 4.95605 22.7959C4.95605 22.7959 3.39471 22.7759 4.84375 23.793C4.84375 23.793 5.89602 24.2988 6.62402 26.1924C6.62578 26.1984 7.56718 29.3825 12.0137 28.3936C12.0203 29.7607 12.0332 30.793 12.0332 31.1826C12.0332 31.6187 11.7401 32.1259 10.9404 31.9717C4.58448 29.8047 7.93902e-05 23.6564 0 16.4062C0 7.34591 7.16 4.62291e-07 16 0Z" fill="#181717"/>
</svg>
