<svg width="32" height="32" viewBox="0 0 32 32" fill="none" xmlns="http://www.w3.org/2000/svg">
<path d="M5.5182 5.61032C6.55512 6.41832 6.94431 6.35699 8.89306 6.23166L27.2616 5.17432C27.6508 5.17432 27.3269 4.80099 27.1976 4.73966L24.1453 2.62366C23.5615 2.189 22.7817 1.69033 21.2889 1.81433L3.50413 3.05966C2.8564 3.121 2.72574 3.433 2.98428 3.68099L5.5182 5.61032ZM6.62045 9.71698V28.2556C6.62045 29.2516 7.13891 29.6249 8.30788 29.5623L28.4945 28.4423C29.6635 28.3809 29.7941 27.6956 29.7941 26.8863V8.47165C29.7941 7.66365 29.4702 7.22765 28.7544 7.28899L7.65876 8.47165C6.88038 8.53432 6.62045 8.90898 6.62045 9.71698ZM26.5485 10.7103C26.6778 11.2703 26.5485 11.8303 25.9647 11.8943L24.9917 12.081V25.7663C24.1466 26.2023 23.3683 26.4516 22.7191 26.4516C21.6794 26.4516 21.4195 26.1396 20.6411 25.2076L14.2792 15.6263V24.8956L16.2919 25.3329C16.2919 25.3329 16.2919 26.4529 14.6684 26.4529L10.1899 26.7009C10.0606 26.4529 10.1899 25.8303 10.6444 25.7063L11.812 25.3956V13.1383L10.1927 13.013C10.062 12.453 10.3873 11.645 11.2949 11.5823L16.0987 11.2716L22.7205 20.977V12.3903L21.0317 12.205C20.9024 11.5196 21.4209 11.0223 22.07 10.961L26.5485 10.7103ZM2.01129 1.37967L20.5119 0.0730024C22.7831 -0.113664 23.3683 0.0103359 24.7958 1.00633L30.7018 4.98766C31.6747 5.67166 32 5.85832 32 6.60499V28.4423C32 29.8103 31.4815 30.6209 29.6648 30.7436L8.17861 31.9889C6.81644 32.0516 6.16593 31.8649 5.45148 30.9929L1.10225 25.5796C0.323864 24.5836 0 23.8383 0 22.9663V3.55566C0 2.437 0.519851 1.50233 2.01129 1.37967Z" fill="black"/>
</svg>
